# xmcd
#
# Track frame offsets: 
#        150
#        16430
#        29345
#        52155
#        82156
#        94618
#        111870
#        125625
#        148059
#        157666
#        173547
#        184273
#
# Disc length: 3006 seconds
#
# Revision: 0
# Processed by: cddbd v1.5.2PL0 Copyright (c) Steve Scherf et al.
# Submitted via: ExactAudioCopy v1.3
#
DISCID=9e0bbc0c
DTITLE=John Clifton - Nightlife
DYEAR=2018
DGENRE=Electric Blues, Harmonica Blues
TTITLE0=Strang Land
TTITLE1=Sad About It
TTITLE2=Last Clean Shirt
TTITLE3=Long As I Have You
TTITLE4=Brand New Way To Walk
TTITLE5=Swamp Dump
TTITLE6=How About That
TTITLE7=Still A Fool
TTITLE8=Nightlife
TTITLE9=Wild Ride
TTITLE10=No Better Time Than Now
TTITLE11=Every Now And Then
EXTD=
EXTT0=
EXTT1=
EXTT2=
EXTT3=
EXTT4=
EXTT5=
EXTT6=
EXTT7=
EXTT8=
EXTT9=
EXTT10=
EXTT11=
PLAYORDER=
